<svg version="1.1" id="Layer_1" xmlns="http://www.w3.org/2000/svg" xmlns:xlink="http://www.w3.org/1999/xlink" x="0px" y="0px"
	 width="100%" viewBox="0 0 389 223" enable-background="new 0 0 389 223" xml:space="preserve">
<path fill="#000000" opacity="1.000000" stroke="none" 
	d="
M295.000000,224.000000 
	C196.666702,224.000000 98.833389,224.000000 1.000066,224.000000 
	C1.000044,149.666718 1.000044,75.333435 1.000022,1.000116 
	C130.666580,1.000077 260.333160,1.000077 389.999817,1.000039 
	C389.999878,75.333221 389.999878,149.666443 389.999939,223.999832 
	C358.500000,224.000000 327.000000,224.000000 295.000000,224.000000 
M192.545578,166.269547 
	C192.388947,165.927963 192.232315,165.586380 192.363129,164.395584 
	C192.383102,149.909210 192.431671,135.422714 192.377884,120.936615 
	C192.372620,119.519791 191.737244,118.105301 191.394791,116.103928 
	C191.285751,115.730499 191.176727,115.357063 191.035507,115.049644 
	C191.035507,115.049644 191.101654,115.081535 191.528976,114.889969 
	C191.752151,114.668083 191.936981,114.417870 192.688354,113.797729 
	C198.001297,109.043854 198.874847,105.489212 196.367508,100.002632 
	C195.966049,99.396637 195.564590,98.790634 195.175674,97.510025 
	C195.098190,97.068428 195.020706,96.626831 195.310928,95.570724 
	C197.822754,93.269516 200.195480,90.783600 202.904053,88.743599 
	C204.295288,87.695778 206.285782,87.443619 208.661575,87.173111 
	C210.770859,87.095367 212.880127,87.017632 215.685150,86.952530 
	C216.523392,86.602097 217.361633,86.251663 218.459717,85.906105 
	C218.459717,85.906105 218.691299,85.788155 219.197845,86.323074 
	C222.788162,89.963051 226.378479,93.603020 229.646759,97.812035 
	C223.734253,103.967964 223.384491,107.421677 227.325424,115.076042 
	C223.858429,118.366928 220.391434,121.657814 216.190384,125.334099 
	C214.613403,125.544907 213.037598,125.927422 211.459244,125.938301 
	C202.111435,126.002670 198.795334,129.448868 198.886124,139.321793 
	C200.691818,149.465759 213.341797,151.509659 218.764984,144.675674 
	C222.527374,139.423477 222.299362,134.115829 219.577194,128.504288 
	C222.765594,125.087555 225.953995,121.670830 229.918945,117.954109 
	C231.530029,118.186111 233.138229,118.440651 234.752670,118.646233 
	C242.156128,119.588974 248.289352,114.980728 248.010590,107.640930 
	C247.873566,104.032875 245.381134,100.514275 244.386230,96.445015 
	C247.594177,93.337746 250.802124,90.230484 254.588104,86.882912 
	C255.068558,86.221420 255.549011,85.559921 256.202271,84.798508 
	C256.202271,84.798508 256.219147,84.599579 257.077423,84.211586 
	C259.005219,84.150513 260.937500,83.973053 262.860016,84.047752 
	C273.260986,84.451881 278.215546,78.036926 275.067017,67.200172 
	C271.840912,60.979183 268.076233,59.142948 261.097290,60.164314 
	C259.773712,60.358025 258.362793,59.955399 256.830780,59.447044 
	C256.643250,59.232254 256.411682,59.088417 256.012421,58.612247 
	C255.362701,58.266483 254.712997,57.920715 253.591904,57.027481 
	C251.091904,54.887886 248.591919,52.748287 246.571579,50.098232 
	C251.174469,41.751926 244.642548,33.590618 237.453720,32.974430 
	C232.902344,32.584309 229.353867,34.589085 227.251648,38.315037 
	C224.751404,42.746376 225.313416,47.432449 227.337830,52.126747 
	C223.745972,55.994717 220.154099,59.862686 216.004852,63.641338 
	C214.749435,63.407604 213.494003,63.173870 211.885910,62.338417 
	C207.374191,57.813793 202.862473,53.289165 198.346954,48.560093 
	C198.346954,48.560093 198.020752,48.354462 197.942093,48.120239 
	C197.942093,48.120239 197.709885,48.035774 197.494751,47.241138 
	C197.421173,45.896229 197.347610,44.551315 197.685196,42.965565 
	C197.685196,42.965565 197.954498,42.572433 198.058716,42.630852 
	C198.058716,42.630852 197.992645,42.461021 197.997559,41.579323 
	C197.949875,40.405418 197.902176,39.231518 198.040863,37.297161 
	C196.265747,29.031418 188.854965,25.853296 180.979187,29.981121 
	C180.979187,29.981121 180.955902,29.917416 180.484985,30.082911 
	C180.186661,30.271420 179.998535,30.537769 179.308853,31.216927 
	C174.566681,34.851921 173.808655,38.093483 175.944000,45.636131 
	C175.938660,46.324310 175.933319,47.012486 175.252029,47.922424 
	C170.809586,52.542805 166.367126,57.163185 161.365875,62.062599 
	C160.877945,62.452599 160.389999,62.842598 159.193192,63.280945 
	C158.498032,63.186760 157.802887,63.092575 156.922791,62.409309 
	C156.307129,61.903439 155.691452,61.397568 155.020477,60.940407 
	C155.020477,60.940407 155.094177,60.940418 154.834457,60.318867 
	C152.211121,57.888073 149.587799,55.457275 146.527039,52.663082 
	C146.316147,52.141655 146.105255,51.620228 146.225189,50.405109 
	C146.763336,48.712021 147.635498,47.046265 147.776703,45.320698 
	C148.191803,40.248352 145.836487,36.021294 141.347565,34.383656 
	C138.272629,33.261871 133.887360,33.390835 130.936996,34.773098 
	C125.396896,37.368679 124.368568,43.323788 126.364914,51.140629 
	C124.885742,52.719673 123.406570,54.298717 121.343224,56.002712 
	C120.948051,56.344677 120.552879,56.686638 119.821129,57.628647 
	C118.900864,58.767052 117.980598,59.905457 116.499870,61.570206 
	C114.560982,61.386131 112.625023,61.159725 110.682678,61.025753 
	C104.326675,60.587364 100.745193,62.806084 98.846283,68.309998 
	C96.922844,73.885002 98.630959,78.517548 103.452522,82.066689 
	C106.990929,84.671295 110.612152,83.361412 114.839035,83.263039 
	C119.558601,87.842361 124.278175,92.421684 128.804214,97.654099 
	C128.153076,99.082703 127.501938,100.511299 126.923607,101.933952 
	C126.923607,101.933952 126.915817,101.861305 126.278290,102.311440 
	C122.872749,109.646126 126.592461,116.782097 135.672058,118.939568 
	C138.046036,118.339371 140.420013,117.739166 143.010620,117.785973 
	C145.216370,120.418686 147.180038,123.317078 149.695831,125.609528 
	C152.219101,127.908775 152.483948,130.181564 150.768707,133.697968 
	C148.348343,138.125717 151.752838,141.289917 153.394226,145.555695 
	C156.869125,146.625900 160.330933,148.510025 163.822128,148.566162 
	C168.484711,148.641113 171.960464,145.217346 173.160553,140.976089 
	C173.907883,138.335007 172.473358,135.076553 171.853424,131.396454 
	C168.738922,125.568001 164.432632,123.843498 157.896240,125.398956 
	C154.193176,121.943977 150.490097,118.488991 147.004440,114.328133 
	C149.997604,108.698555 149.819962,103.357704 145.663040,98.301796 
	C145.182983,97.717934 145.128296,96.784332 145.210663,95.412216 
	C147.587311,93.021095 149.963943,90.629974 152.197906,88.412521 
	C152.197906,88.412521 152.458954,88.491753 152.458954,88.491753 
	C152.458954,88.491753 152.478836,88.125633 152.919403,87.777321 
	C152.994339,87.605774 153.069290,87.434219 153.888931,87.129929 
	C158.631454,86.982697 163.373993,86.835464 168.676178,87.071701 
	C170.492126,89.030098 172.308090,90.988503 174.173843,93.605415 
	C175.135315,94.793182 176.096802,95.980949 176.868484,97.963203 
	C174.526566,105.628830 175.680573,110.155693 181.022110,114.863075 
	C181.052765,115.605820 181.083420,116.348572 180.767700,117.800476 
	C180.830811,121.755852 181.004532,125.713127 180.936417,129.666245 
	C180.727356,141.799393 180.425583,153.930939 180.041946,166.845673 
	C177.850876,171.239761 175.822876,175.726822 173.394485,179.985580 
	C172.309525,181.888306 170.420273,183.332413 168.996841,185.048706 
	C168.996841,185.048706 169.061600,184.948364 168.483902,185.091888 
	C168.004776,185.361359 167.525650,185.630844 166.375153,185.993118 
	C166.158844,186.058258 165.942520,186.123413 164.936615,186.104843 
	C158.115372,187.404114 151.242233,188.482712 144.488861,190.070633 
	C138.812790,191.405228 134.278809,196.126266 133.925400,200.585342 
	C133.925400,200.585342 133.826706,200.984818 133.241211,201.396790 
	C132.024658,204.289307 130.326309,207.300522 135.970810,208.830658 
	C168.555832,208.825653 201.140869,208.831665 233.725845,208.788315 
	C235.679703,208.785721 237.633026,208.388733 240.141602,208.285706 
	C240.725586,207.178223 241.309555,206.070740 241.846527,204.401688 
	C241.612457,204.112808 241.378387,203.823929 241.140839,202.878571 
	C240.473618,201.862808 239.806412,200.847061 239.132858,199.902161 
	C239.132858,199.902161 239.203598,199.894623 239.138611,199.192291 
	C236.768723,197.101303 234.398834,195.010315 232.048462,192.987183 
	C232.048462,192.987183 232.115845,192.966110 231.845276,192.285736 
	C224.800339,188.408173 217.283783,186.590851 208.509888,187.007324 
	C206.982681,186.351135 205.455475,185.694946 203.570053,184.471985 
	C200.078506,179.843491 196.586960,175.214996 192.781723,170.115112 
	C192.556442,169.437805 192.331177,168.760483 192.496719,167.774048 
	C192.740646,167.482040 192.772888,167.168259 192.545578,166.269547 
z"/>
<path fill="#31A160" opacity="1.000000" stroke="none" 
	d="
M165.726181,186.188553 
	C165.942520,186.123413 166.158844,186.058258 166.900024,185.950348 
	C167.970474,185.587830 168.516037,185.268097 169.061600,184.948364 
	C169.061600,184.948364 168.996841,185.048706 169.309021,184.987000 
	C171.476700,183.673676 174.013733,182.830597 175.056229,181.091583 
	C177.862976,176.409622 180.031998,171.345367 182.627930,166.156525 
	C182.905792,165.689072 183.009888,165.497971 183.446991,165.255096 
	C184.232376,165.218872 184.684753,165.234406 185.451797,165.369781 
	C187.740982,165.949280 189.715515,166.408951 191.802277,167.169434 
	C191.978333,167.674561 192.042130,167.878876 192.105911,168.083176 
	C192.331177,168.760483 192.556442,169.437805 192.849274,170.680832 
	C193.298294,177.435959 197.975052,183.293762 203.928268,185.038773 
	C205.455475,185.694946 206.982681,186.351135 209.064209,187.354874 
	C217.117645,189.456985 224.616745,191.211548 232.115845,192.966095 
	C232.115845,192.966110 232.048462,192.987183 232.112885,193.282562 
	C234.519394,195.683487 236.861496,197.789047 239.203598,199.894623 
	C239.203598,199.894623 239.132858,199.902161 239.122192,200.256897 
	C239.226669,202.184311 239.341843,203.757019 239.514618,206.116150 
	C234.913544,206.116150 230.861679,206.115021 226.809830,206.116348 
	C198.098846,206.125671 169.385025,205.935715 140.679718,206.344284 
	C135.963760,206.411407 134.065048,205.419647 133.826706,200.984818 
	C133.826706,200.984818 133.925400,200.585342 134.273529,200.258347 
	C139.798798,194.578812 145.789520,191.086456 153.416687,190.110367 
	C157.618332,189.572662 161.629272,187.544662 165.726181,186.188553 
z"/>
<path fill="#38A165" opacity="1.000000" stroke="none" 
	d="
M114.269012,82.968903 
	C110.612152,83.361412 106.990929,84.671295 103.452522,82.066689 
	C98.630959,78.517548 96.922844,73.885002 98.846283,68.309998 
	C100.745193,62.806084 104.326675,60.587364 110.682678,61.025753 
	C112.625023,61.159725 114.560982,61.386131 117.080994,61.214478 
	C118.493988,59.582027 119.325844,58.305313 120.157715,57.028595 
	C120.552879,56.686638 120.948051,56.344677 121.789413,56.267715 
	C122.607910,57.423130 122.980209,58.313538 123.304100,59.193459 
	C123.255692,59.182968 123.253693,59.083923 122.935104,59.225792 
	C121.433212,60.974640 120.249916,62.581619 119.052429,64.578506 
	C120.914513,70.210724 120.700836,75.458534 119.073364,81.122879 
	C119.050018,82.360397 119.033089,83.185112 118.694550,83.864792 
	C117.004959,83.469475 115.636986,83.219193 114.269012,82.968903 
M107.798119,75.916672 
	C109.538185,74.831627 111.278252,73.746582 113.018318,72.661537 
	C112.212334,71.507973 111.587967,69.629227 110.557693,69.371193 
	C109.021004,68.986320 107.198112,69.744186 105.496986,70.015854 
	C106.022552,71.871857 106.548119,73.727852 107.798119,75.916672 
z"/>
<path fill="#176C9B" opacity="1.000000" stroke="none" 
	d="
M212.238586,62.940132 
	C213.494003,63.173870 214.749435,63.407604 216.282532,63.884674 
	C217.327972,64.793755 218.095734,65.459503 218.899170,66.350639 
	C218.934814,66.576027 219.037888,67.020615 219.160751,67.274002 
	C219.803696,68.063835 220.323761,68.600273 220.912643,69.539330 
	C220.997116,74.309349 221.012772,78.676758 220.819794,83.256248 
	C219.971207,84.241608 219.331253,85.014877 218.691299,85.788155 
	C218.691299,85.788155 218.459717,85.906105 217.982849,85.941833 
	C216.667130,86.298340 215.828278,86.619118 214.989410,86.939896 
	C212.880127,87.017632 210.770859,87.095367 208.075348,86.801834 
	C205.326355,84.265427 203.163589,82.100311 200.925446,79.554901 
	C198.414062,72.467430 202.277130,68.562172 207.436035,65.054787 
	C208.180573,64.941727 208.604004,64.864365 209.325684,64.692749 
	C210.495483,64.045715 211.367035,63.492920 212.238586,62.940132 
M213.145477,71.909615 
	C210.104980,71.477364 207.389862,72.103500 208.049362,75.769661 
	C208.291550,77.115967 210.798462,78.349861 212.513123,78.998703 
	C213.253098,79.278717 215.546158,77.870377 215.505920,77.356537 
	C215.369217,75.611526 214.506180,73.923416 213.145477,71.909615 
z"/>
<path fill="#176C9B" opacity="1.000000" stroke="none" 
	d="
M227.949478,51.809643 
	C225.313416,47.432449 224.751404,42.746376 227.251648,38.315037 
	C229.353867,34.589085 232.902344,32.584309 237.453720,32.974430 
	C244.642548,33.590618 251.174469,41.751926 246.176849,50.673397 
	C245.434982,52.125515 245.087845,53.002472 244.406097,54.013775 
	C240.177109,54.441040 236.282700,54.733955 232.125427,54.836960 
	C231.279922,54.407093 230.697266,54.167141 229.996063,53.636017 
	C229.234833,52.833115 228.592163,52.321381 227.949478,51.809643 
M239.818466,41.586205 
	C237.182724,39.425671 234.655930,39.011929 233.245834,42.709263 
	C232.827133,43.807137 233.328568,46.019756 234.191071,46.649326 
	C235.272156,47.438457 237.854614,47.815899 238.540787,47.127254 
	C239.656860,46.007149 239.760147,43.877941 239.818466,41.586205 
z"/>
<path fill="#176C9B" opacity="1.000000" stroke="none" 
	d="
M126.965927,50.845547 
	C124.368568,43.323788 125.396896,37.368679 130.936996,34.773098 
	C133.887360,33.390835 138.272629,33.261871 141.347565,34.383656 
	C145.836487,36.021294 148.191803,40.248352 147.776703,45.320698 
	C147.635498,47.046265 146.763336,48.712021 145.768555,50.923378 
	C141.073425,55.562122 136.126709,55.809170 130.540222,54.100063 
	C129.892715,54.058483 129.525711,54.008118 129.077515,53.638638 
	C128.319534,52.494862 127.642731,51.670204 126.965927,50.845547 
M139.343628,41.411514 
	C137.445786,41.410275 135.403564,41.011589 133.727417,41.620544 
	C133.130157,41.837532 132.813751,44.881161 133.478485,45.934280 
	C134.128723,46.964397 137.225784,47.836681 137.460068,47.507030 
	C138.583252,45.926582 139.099716,43.914963 139.343628,41.411514 
z"/>
<path fill="#126B9B" opacity="1.000000" stroke="none" 
	d="
M194.943237,96.185242 
	C195.020706,96.626831 195.098190,97.068428 195.278381,97.979347 
	C195.609756,98.982178 195.838394,99.515686 196.067047,100.049194 
	C198.874847,105.489212 198.001297,109.043854 192.137451,114.017548 
	C191.424911,114.518761 191.263290,114.800148 191.101654,115.081535 
	C191.101654,115.081535 191.035507,115.049644 190.681122,115.149384 
	C187.213837,114.873756 184.100922,114.498405 180.988007,114.123055 
	C175.680573,110.155693 174.526566,105.628830 177.252319,97.452881 
	C178.109390,96.321640 178.582626,95.700722 179.027466,95.047684 
	C178.999100,95.015556 179.059082,95.071075 179.376495,95.059303 
	C180.486420,94.441071 181.278931,93.834618 182.490387,93.132599 
	C186.188095,93.031189 189.466858,93.025360 192.828812,93.338074 
	C193.589081,94.499496 194.266159,95.342369 194.943237,96.185242 
M187.240616,107.778694 
	C188.500381,106.334641 189.760147,104.890587 191.019913,103.446533 
	C189.391998,102.331619 187.853363,100.579224 186.103622,100.334167 
	C185.004745,100.180267 183.589005,102.288826 182.315414,103.382332 
	C183.709778,104.851738 185.104141,106.321144 187.240616,107.778694 
z"/>
<path fill="#36A163" opacity="1.000000" stroke="none" 
	d="
M153.194336,144.879944 
	C151.752838,141.289917 148.348343,138.125717 151.264954,133.210999 
	C152.516769,130.811890 153.272308,128.899750 154.204666,126.838364 
	C154.609100,126.478668 154.816360,126.249779 155.414795,126.007874 
	C156.651550,125.998734 157.476776,125.984169 158.301987,125.969604 
	C164.432632,123.843498 168.738922,125.568001 172.064789,132.102600 
	C174.102921,137.712234 172.235809,141.592819 168.640259,144.748947 
	C165.144318,147.817627 161.091125,147.561050 156.973236,146.019409 
	C155.743729,145.559113 154.455612,145.255402 153.194336,144.879944 
M163.966034,133.387329 
	C162.070480,133.876144 159.908295,133.985001 158.408264,135.037537 
	C157.793106,135.469193 158.078873,138.407196 158.916840,139.350052 
	C159.787430,140.329605 162.078537,140.984543 163.297409,140.541275 
	C166.990219,139.198242 166.441910,136.503036 163.966034,133.387329 
z"/>
<path fill="#38A165" opacity="1.000000" stroke="none" 
	d="
M218.986069,128.765305 
	C222.299362,134.115829 222.527374,139.423477 218.068756,144.908508 
	C212.826950,146.727493 208.168549,148.306290 203.900116,144.779190 
	C201.988876,143.199905 200.649002,140.929184 199.049835,138.972244 
	C198.795334,129.448868 202.111435,126.002670 211.459244,125.938301 
	C213.037598,125.927422 214.613403,125.544907 216.883728,125.183746 
	C218.046753,126.277359 218.516403,127.521332 218.986069,128.765305 
M207.559235,133.802368 
	C205.346558,136.923492 205.645309,139.538284 209.565491,140.576431 
	C210.830612,140.911469 212.897964,140.082504 213.865860,139.079285 
	C214.628632,138.288727 214.778748,135.434692 214.315140,135.192444 
	C212.470596,134.228607 210.278931,133.929108 207.559235,133.802368 
z"/>
<path fill="#156D9D" opacity="1.000000" stroke="none" 
	d="
M197.854492,38.057613 
	C197.902176,39.231518 197.949875,40.405418 197.983261,42.046310 
	C197.968964,42.513294 197.954498,42.572433 197.954498,42.572433 
	C197.954498,42.572433 197.685196,42.965565 197.370880,43.337383 
	C193.421555,49.286884 189.165131,51.438049 183.374725,49.662426 
	C180.717377,48.847553 178.507874,46.572205 176.095291,44.959152 
	C173.808655,38.093483 174.566681,34.851921 179.780853,31.092583 
	C180.487213,30.617964 180.721558,30.267689 180.955902,29.917416 
	C180.955902,29.917416 180.979187,29.981121 181.399155,29.969099 
	C189.134155,28.757730 194.233841,31.943771 197.854492,38.057613 
M188.865601,42.720757 
	C191.412903,39.449577 191.198776,36.623913 188.094910,35.833485 
	C186.748108,35.490505 184.747223,35.931370 183.689789,36.801613 
	C182.844574,37.497196 182.323563,40.210350 182.797791,40.584599 
	C184.288239,41.760860 186.316208,42.256054 188.865601,42.720757 
z"/>
<path fill="#126B9B" opacity="1.000000" stroke="none" 
	d="
M142.793991,117.138962 
	C140.420013,117.739166 138.046036,118.339371 135.165070,118.578186 
	C128.524979,114.446571 125.943596,108.995033 126.915817,101.861305 
	C126.915817,101.861305 126.923607,101.933952 127.209846,101.844116 
	C128.628555,100.182243 129.761017,98.610207 131.222748,96.959961 
	C132.382156,96.555870 133.212296,96.229988 134.429169,95.847214 
	C137.128326,95.552101 139.440750,95.313889 141.916016,95.299149 
	C142.367157,95.750160 142.655426,95.977684 142.989243,96.551346 
	C146.761642,102.562057 148.687332,108.445000 145.155243,115.057129 
	C145.083344,115.133362 144.958298,115.301529 144.803116,115.367371 
	C144.454834,115.569016 144.318604,115.748123 144.180176,116.171875 
	C144.121094,116.373207 144.031982,116.783287 143.721069,116.867279 
	C143.204773,117.013840 142.999390,117.076401 142.793991,117.138962 
M134.019455,109.698128 
	C136.019043,109.536530 138.244003,109.824036 139.906143,108.989967 
	C140.561279,108.661224 140.611923,104.973671 139.778854,104.340530 
	C138.543564,103.401718 135.618515,103.037209 134.626373,103.871475 
	C133.541626,104.783615 133.838272,107.338593 134.019455,109.698128 
z"/>
<path fill="#5A9076" opacity="1.000000" stroke="none" 
	d="
M133.533966,201.190796 
	C134.065048,205.419647 135.963760,206.411407 140.679718,206.344284 
	C169.385025,205.935715 198.098846,206.125671 226.809830,206.116348 
	C230.861679,206.115021 234.913544,206.116150 239.514618,206.116150 
	C239.341843,203.757019 239.226669,202.184311 239.125366,200.221466 
	C239.806412,200.847061 240.473618,201.862808 241.213593,203.472717 
	C241.488739,204.365677 241.691132,204.664459 241.893524,204.963257 
	C241.309555,206.070740 240.725586,207.178223 239.353638,208.184967 
	C205.345215,208.036423 172.124756,207.979691 138.904282,207.974335 
	C137.618820,207.974121 136.333313,208.467026 135.047821,208.730164 
	C130.326309,207.300522 132.024658,204.289307 133.533966,201.190796 
z"/>
<path fill="#4A9E71" opacity="1.000000" stroke="none" 
	d="
M256.219147,84.599579 
	C256.219147,84.599579 256.202271,84.798508 255.823425,84.976349 
	C254.966415,85.810524 254.488235,86.466866 254.010056,87.123207 
	C250.802124,90.230484 247.594177,93.337746 243.856659,96.739326 
	C242.909546,97.090370 242.492004,97.147095 241.784912,97.147064 
	C241.301025,97.068626 241.106720,97.046944 240.903915,96.721237 
	C240.895950,96.011719 240.896484,95.606247 241.149200,94.926605 
	C241.571915,93.736855 241.742416,92.821274 241.955963,91.939468 
	C241.998993,91.973244 241.901184,91.925568 242.252869,92.001831 
	C243.051239,91.354095 243.497925,90.630112 243.956238,89.937073 
	C243.967850,89.968025 243.901733,89.967567 244.188583,89.925201 
	C244.636780,89.553223 244.798126,89.223610 244.960602,88.927765 
	C244.961761,88.961533 244.895264,88.949501 245.201202,88.944107 
	C245.652100,88.588783 245.797028,88.238846 245.948547,87.922073 
	C245.955109,87.955238 245.888657,87.942764 246.193542,87.936440 
	C246.646988,87.583321 246.795517,87.236526 246.950012,86.922913 
	C246.955963,86.956100 246.889389,86.945496 247.191727,86.933670 
	C247.643387,86.577187 247.792725,86.232536 247.948151,85.921349 
	C247.954254,85.954819 247.888428,85.937584 248.198669,85.942856 
	C248.652283,85.595184 248.795654,85.242241 248.944000,84.924133 
	C248.948959,84.958977 248.885910,84.927696 249.236389,84.972992 
	C250.036224,84.308037 250.485596,83.597786 250.948517,82.921318 
	C250.962051,82.955093 250.893372,82.931007 251.223541,82.978386 
	C252.049316,82.360115 252.544907,81.694466 253.221436,80.704437 
	C253.317352,77.930710 253.232361,75.481361 253.446777,73.189987 
	C254.550217,76.572914 255.354202,79.797867 256.174835,83.416962 
	C256.200684,84.073921 256.209900,84.336754 256.219147,84.599579 
z"/>
<path fill="#527D64" opacity="1.000000" stroke="none" 
	d="
M135.509308,208.780396 
	C136.333313,208.467026 137.618820,207.974121 138.904282,207.974335 
	C172.124756,207.979691 205.345215,208.036423 239.076141,208.129761 
	C237.633026,208.388733 235.679703,208.785721 233.725845,208.788315 
	C201.140869,208.831665 168.555832,208.825653 135.509308,208.780396 
z"/>
<path fill="#4A9E71" opacity="1.000000" stroke="none" 
	d="
M161.924683,61.783562 
	C166.367126,57.163185 170.809586,52.542805 175.822632,48.076035 
	C177.025665,49.200745 177.658096,50.171848 178.270996,51.153706 
	C178.251450,51.164463 178.221817,51.132099 178.005493,51.294613 
	C177.526917,51.914883 177.264694,52.372639 176.995850,52.901688 
	C176.989243,52.972977 176.850403,53.008003 176.594727,53.088600 
	C175.957352,53.536671 175.575668,53.904144 175.189041,54.229973 
	C175.184097,54.188320 175.267838,54.183193 175.047058,54.340645 
	C174.555084,54.952209 174.283859,55.406326 174.009674,55.928238 
	C174.006699,55.996037 173.872803,56.018139 173.614410,56.111572 
	C172.986786,56.593616 172.617569,56.982220 172.038971,57.621311 
	C169.768768,60.219704 167.707977,62.567612 165.376251,64.924263 
	C164.744873,64.973961 164.384430,65.014915 163.747635,64.975250 
	C162.964890,64.629257 162.458481,64.363876 161.953094,63.712692 
	C161.944290,62.812447 161.934494,62.298008 161.924683,61.783562 
z"/>
<path fill="#4A9E71" opacity="1.000000" stroke="none" 
	d="
M130.820724,54.091278 
	C136.126709,55.809170 141.073425,55.562122 145.603149,51.270222 
	C146.105255,51.620228 146.316147,52.141655 146.834946,53.174484 
	C149.793289,56.104065 152.443741,58.522240 155.094177,60.940418 
	C155.094177,60.940418 155.020477,60.940407 155.070633,61.181694 
	C155.783096,61.948120 156.445419,62.473259 157.107727,62.998390 
	C157.802887,63.092575 158.498032,63.186760 159.549744,63.488815 
	C159.906311,63.696690 159.909592,64.161728 159.625305,64.327446 
	C156.903214,65.636101 154.465424,66.779045 152.097351,67.516045 
	C152.061615,64.526985 144.748566,55.585201 142.401566,55.377708 
	C141.461884,55.294640 140.420410,56.091465 139.514999,55.942482 
	C136.594452,55.461914 133.715622,54.727715 130.820724,54.091278 
z"/>
<path fill="#8EBAA1" opacity="1.000000" stroke="none" 
	d="
M165.331390,186.146698 
	C161.629272,187.544662 157.618332,189.572662 153.416687,190.110367 
	C145.789520,191.086456 139.798798,194.578812 134.302917,200.054718 
	C134.278809,196.126266 138.812790,191.405228 144.488861,190.070633 
	C151.242233,188.482712 158.115372,187.404114 165.331390,186.146698 
z"/>
<path fill="#4B7181" opacity="1.000000" stroke="none" 
	d="
M242.074478,97.203819 
	C242.492004,97.147095 242.909546,97.090370 243.640839,96.994415 
	C245.381134,100.514275 247.873566,104.032875 248.010590,107.640930 
	C248.289352,114.980728 242.156128,119.588974 234.752670,118.646233 
	C233.138229,118.440651 231.530029,118.186111 229.497818,117.719879 
	C229.098663,116.972382 229.120636,116.459122 229.460754,115.936401 
	C230.205551,115.909668 230.632202,115.892380 231.290009,115.908936 
	C231.521164,115.942780 231.987717,115.967972 232.369171,116.077606 
	C237.117447,117.942970 241.516098,117.486458 243.808228,113.450859 
	C245.404114,110.641113 245.481186,106.655304 245.276382,103.252655 
	C245.151627,101.179649 243.203568,99.216377 242.074478,97.203819 
z"/>
<path fill="#808480" opacity="1.000000" stroke="none" 
	d="
M183.113983,165.306854 
	C183.009888,165.497971 182.905792,165.689072 182.354172,166.067749 
	C181.324371,166.191238 180.742111,166.127182 180.159851,166.063110 
	C180.425583,153.930939 180.727356,141.799393 180.936417,129.666245 
	C181.004532,125.713127 180.830811,121.755852 181.211945,117.607689 
	C181.966492,117.699074 182.276810,117.983246 182.535217,118.711639 
	C182.466064,126.278908 182.353210,133.403351 182.456635,140.524658 
	C182.576630,148.786819 182.886520,157.046249 183.113983,165.306854 
z"/>
<path fill="#5A9076" opacity="1.000000" stroke="none" 
	d="
M218.944580,86.055618 
	C219.331253,85.014877 219.971207,84.241608 221.009796,83.271301 
	C221.408447,83.074272 221.789795,83.061348 221.963089,83.361687 
	C225.517395,87.455620 228.898422,91.249214 232.103577,95.313965 
	C231.274750,96.137756 230.621765,96.690376 229.968796,97.242996 
	C226.378479,93.603020 222.788162,89.963051 218.944580,86.055618 
z"/>
<path fill="#4A9E71" opacity="1.000000" stroke="none" 
	d="
M195.127075,95.877983 
	C194.266159,95.342369 193.589081,94.499496 193.012436,93.036057 
	C194.368683,91.138184 195.567215,89.797615 196.892563,88.597046 
	C199.470367,86.261902 201.947662,83.923500 201.000824,79.935196 
	C203.163589,82.100311 205.326355,84.265427 207.747284,86.631218 
	C206.285782,87.443619 204.295288,87.695778 202.904053,88.743599 
	C200.195480,90.783600 197.822754,93.269516 195.127075,95.877983 
z"/>
<path fill="#4A9E71" opacity="1.000000" stroke="none" 
	d="
M229.142609,115.945854 
	C229.120636,116.459122 229.098663,116.972382 229.109543,117.869873 
	C225.953995,121.670830 222.765594,125.087555 219.281631,128.634796 
	C218.516403,127.521332 218.046753,126.277359 217.250763,124.991043 
	C220.391434,121.657814 223.858429,118.366928 227.901642,114.960693 
	C228.662308,114.865234 228.846786,114.885132 229.051010,115.166107 
	C229.094711,115.600067 229.118668,115.772964 229.142609,115.945854 
z"/>
<path fill="#429E6E" opacity="1.000000" stroke="none" 
	d="
M212.062256,62.639275 
	C211.367035,63.492920 210.495483,64.045715 209.202408,64.433334 
	C208.157440,63.857174 207.534012,63.446182 206.942688,63.021282 
	C206.974808,63.007378 207.000549,63.072464 206.848328,62.868935 
	C206.440933,62.443768 206.185776,62.222134 205.965439,61.999504 
	C206.000259,61.998505 206.000351,62.068180 205.847931,61.867020 
	C205.440643,61.447708 205.185776,61.229553 204.963791,61.009903 
	C204.996674,61.008411 204.988281,61.073708 204.839661,60.870018 
	C204.437027,60.447639 204.182999,60.228951 203.962524,60.009258 
	C203.996063,60.008255 203.989761,60.075073 203.839752,59.871483 
	C203.433502,59.450191 203.177246,59.232491 202.957001,59.058609 
	C202.992996,59.102432 202.905411,59.174492 202.826233,58.865326 
	C202.107635,58.070267 201.468246,57.584370 200.861893,57.054596 
	C200.894943,57.010719 200.982742,57.076756 200.834015,56.872036 
	C200.431061,56.446987 200.176834,56.226658 199.951782,56.025337 
	C199.980988,56.044346 199.940094,56.100765 199.897842,55.750748 
	C198.523804,53.256920 197.192017,51.113110 196.056351,48.791683 
	C196.738281,48.421299 197.224075,48.228535 197.709885,48.035774 
	C197.709885,48.035774 197.942093,48.120239 198.023819,48.315834 
	C198.105545,48.511429 198.350754,48.764538 198.350754,48.764542 
	C202.862473,53.289165 207.374191,57.813793 212.062256,62.639275 
z"/>
<path fill="#176C9B" opacity="1.000000" stroke="none" 
	d="
M229.031250,114.905029 
	C228.846786,114.885132 228.662308,114.865234 228.204895,114.795166 
	C223.384491,107.421677 223.734253,103.967964 229.807770,97.527512 
	C230.621765,96.690376 231.274750,96.137756 232.516663,95.272453 
	C235.373093,94.964935 237.640610,94.970093 240.157318,95.022942 
	C240.570007,95.114006 240.733505,95.157387 240.897018,95.200768 
	C240.896484,95.606247 240.895950,96.011719 240.480377,96.715973 
	C230.069321,97.016434 226.938965,100.934105 228.836136,110.963982 
	C229.078278,112.244164 228.974670,113.589745 229.031250,114.905029 
z"/>
<path fill="#4A9E71" opacity="1.000000" stroke="none" 
	d="
M227.643646,51.968193 
	C228.592163,52.321381 229.234833,52.833115 230.031113,53.993443 
	C230.224091,54.878033 230.263489,55.114033 230.239075,55.291443 
	C230.175293,55.232853 230.294724,55.107380 230.062653,55.265884 
	C229.586960,55.707165 229.343353,55.989948 229.100677,56.180351 
	C229.101593,56.087975 229.286316,56.092270 229.072235,56.267609 
	C228.649551,56.745792 228.440964,57.048637 228.254623,57.269615 
	C228.276871,57.187748 228.439102,57.237484 228.179688,57.389900 
	C227.618912,58.042164 227.317581,58.542011 227.004486,59.019173 
	C226.992722,58.996490 227.043503,59.002216 226.841614,59.147243 
	C226.384949,59.509796 226.172791,59.763020 225.998917,60.024521 
	C225.994598,59.997101 226.046616,60.016449 225.755386,60.119488 
	C225.005096,60.862789 224.546021,61.503052 224.061798,62.107101 
	C224.036636,62.070881 224.109589,62.021305 223.901031,62.170784 
	C223.463821,62.573818 223.235153,62.827377 223.007141,63.043968 
	C223.007797,63.006996 223.081711,63.008511 222.877106,63.160385 
	C222.453674,63.570709 222.234863,63.829159 222.053192,64.060654 
	C222.090332,64.033691 222.148407,64.104797 221.819397,64.147308 
	C220.614761,64.834976 219.739136,65.480118 218.863510,66.125259 
	C218.095734,65.459503 217.327972,64.793755 216.561218,63.929329 
	C220.154099,59.862686 223.745972,55.994717 227.643646,51.968193 
z"/>
<path fill="#555856" opacity="1.000000" stroke="none" 
	d="
M191.394333,116.689728 
	C191.737244,118.105301 192.372620,119.519791 192.377884,120.936615 
	C192.431671,135.422714 192.383102,149.909210 192.038605,164.837128 
	C191.471985,165.238251 191.245255,165.155685 191.013702,164.559845 
	C191.001740,148.382706 191.009933,132.676697 191.111847,116.899994 
	C191.205566,116.829308 191.394333,116.689728 191.394333,116.689728 
z"/>
<path fill="#527D64" opacity="1.000000" stroke="none" 
	d="
M153.294281,145.217819 
	C154.455612,145.255402 155.743729,145.559113 156.973236,146.019409 
	C161.091125,147.561050 165.144318,147.817627 168.640259,144.748947 
	C172.235809,141.592819 174.102921,137.712234 172.147095,132.451965 
	C172.473358,135.076553 173.907883,138.335007 173.160553,140.976089 
	C171.960464,145.217346 168.484711,148.641113 163.822128,148.566162 
	C160.330933,148.510025 156.869125,146.625900 153.294281,145.217819 
z"/>
<path fill="#429E6E" opacity="1.000000" stroke="none" 
	d="
M244.740692,53.879425 
	C245.087845,53.002472 245.434982,52.125515 245.937042,50.928627 
	C248.591919,52.748287 251.091904,54.887886 253.957367,57.536564 
	C254.927231,58.368942 255.531616,58.692234 256.136017,59.015526 
	C256.411682,59.088417 256.643250,59.232254 256.955170,59.967842 
	C257.408020,61.304741 257.736481,62.120846 257.641357,62.962738 
	C256.376465,63.051876 255.535141,63.115223 254.388855,63.050430 
	C250.969513,59.907997 247.855103,56.893711 244.740692,53.879425 
z"/>
<path fill="#527D64" opacity="1.000000" stroke="none" 
	d="
M256.648285,84.405579 
	C256.209900,84.336754 256.200684,84.073921 256.513123,83.250366 
	C258.765778,82.616203 260.786316,82.140633 262.610687,82.546555 
	C267.601349,83.656975 271.296783,81.763977 273.196838,77.477272 
	C274.446930,74.656952 274.256378,71.198074 274.855896,67.972076 
	C275.000824,67.919006 275.304810,67.865097 275.304810,67.865097 
	C278.215546,78.036926 273.260986,84.451881 262.860016,84.047752 
	C260.937500,83.973053 259.005219,84.150513 256.648285,84.405579 
z"/>
<path fill="#4B7181" opacity="1.000000" stroke="none" 
	d="
M197.602325,47.638454 
	C197.224075,48.228535 196.738281,48.421299 195.864929,48.985901 
	C195.244324,49.639637 195.011261,49.921535 194.398590,50.145157 
	C188.776169,50.438908 183.533340,50.790932 178.290527,51.142952 
	C177.658096,50.171848 177.025665,49.200745 176.160599,47.965153 
	C175.933319,47.012486 175.938660,46.324310 176.019653,45.297642 
	C178.507874,46.572205 180.717377,48.847553 183.374725,49.662426 
	C189.165131,51.438049 193.421555,49.286884 197.165298,43.457802 
	C197.347610,44.551315 197.421173,45.896229 197.602325,47.638454 
z"/>
<path fill="#429E6E" opacity="1.000000" stroke="none" 
	d="
M142.943710,96.205215 
	C142.655426,95.977684 142.367157,95.750160 142.019241,94.944046 
	C145.024231,90.877205 148.088852,87.388947 151.386902,84.057236 
	C152.130188,84.754585 152.640030,85.295387 153.139343,86.192772 
	C153.133972,86.787117 153.139099,87.024887 153.144241,87.262665 
	C153.069290,87.434219 152.994339,87.605774 152.669769,87.960205 
	C152.420151,88.143082 152.340591,88.238846 152.340591,88.238846 
	C149.963943,90.629974 147.587311,93.021095 144.720154,95.731895 
	C143.801010,96.102783 143.372360,96.153999 142.943710,96.205215 
z"/>
<path fill="#8EBAA1" opacity="1.000000" stroke="none" 
	d="
M180.100891,166.454407 
	C180.742111,166.127182 181.324371,166.191238 182.180389,166.344070 
	C180.031998,171.345367 177.862976,176.409622 175.056229,181.091583 
	C174.013733,182.830597 171.476700,183.673676 169.258621,184.954987 
	C170.420273,183.332413 172.309525,181.888306 173.394485,179.985580 
	C175.822876,175.726822 177.850876,171.239761 180.100891,166.454407 
z"/>
<path fill="#808480" opacity="1.000000" stroke="none" 
	d="
M231.980560,192.625916 
	C224.616745,191.211548 217.117645,189.456985 209.425537,187.405853 
	C217.283783,186.590851 224.800339,188.408173 231.980560,192.625916 
z"/>
<path fill="#588870" opacity="1.000000" stroke="none" 
	d="
M198.967987,139.147018 
	C200.649002,140.929184 201.988876,143.199905 203.900116,144.779190 
	C208.168549,148.306290 212.826950,146.727493 217.763702,145.086395 
	C213.341797,151.509659 200.691818,149.465759 198.967987,139.147018 
z"/>
<path fill="#4B7181" opacity="1.000000" stroke="none" 
	d="
M142.989243,96.551346 
	C143.372360,96.153999 143.801010,96.102783 144.553024,96.032227 
	C145.128296,96.784332 145.182983,97.717934 145.663040,98.301796 
	C149.819962,103.357704 149.997604,108.698555 146.634613,114.682281 
	C145.918884,115.017929 145.573013,114.999420 145.227127,114.980904 
	C148.687332,108.445000 146.761642,102.562057 142.989243,96.551346 
z"/>
<path fill="#5A9076" opacity="1.000000" stroke="none" 
	d="
M114.554024,83.115974 
	C115.636986,83.219193 117.004959,83.469475 118.683922,83.858559 
	C118.994911,83.997360 118.977814,83.981476 119.156952,84.266380 
	C121.646538,86.372910 123.956985,88.194527 126.395248,90.123505 
	C126.688011,90.380852 126.841652,90.541672 126.999176,91.083839 
	C128.013458,92.704369 129.012527,93.954361 130.011230,95.482452 
	C130.011734,96.129684 130.012634,96.498825 129.759583,96.901146 
	C129.336349,96.956551 129.167053,96.978783 128.997742,97.001007 
	C124.278175,92.421684 119.558601,87.842361 114.554024,83.115974 
z"/>
<path fill="#5A9076" opacity="1.000000" stroke="none" 
	d="
M258.064941,62.936951 
	C257.736481,62.120846 257.408020,61.304741 257.035889,60.158283 
	C258.362793,59.955399 259.773712,60.358025 261.097290,60.164314 
	C268.076233,59.142948 271.840912,60.979183 275.185913,67.532639 
	C275.304810,67.865097 275.000824,67.919006 274.572021,67.843346 
	C269.981659,62.170456 264.545563,60.815437 258.064941,62.936951 
z"/>
<path fill="#588870" opacity="1.000000" stroke="none" 
	d="
M203.749161,184.755371 
	C197.975052,183.293762 193.298294,177.435959 193.006119,170.916534 
	C196.586960,175.214996 200.078506,179.843491 203.749161,184.755371 
z"/>
<path fill="#5A9076" opacity="1.000000" stroke="none" 
	d="
M142.902313,117.462463 
	C142.999390,117.076401 143.204773,117.013840 143.956909,116.913300 
	C144.503632,116.875328 144.980499,116.945419 145.000565,116.960861 
	C145.020630,116.976311 145.053528,117.014816 145.259094,117.206451 
	C145.982040,117.600517 146.499390,117.802948 147.008606,118.002808 
	C147.000458,118.000244 146.995071,117.984116 147.011963,118.343826 
	C149.361862,121.464890 151.694855,124.226250 154.027863,126.987602 
	C153.272308,128.899750 152.516769,130.811890 151.447235,132.862976 
	C152.483948,130.181564 152.219101,127.908775 149.695831,125.609528 
	C147.180038,123.317078 145.216370,120.418686 142.902313,117.462463 
z"/>
<path fill="#4B7181" opacity="1.000000" stroke="none" 
	d="
M197.947678,37.677387 
	C194.233841,31.943771 189.134155,28.757730 181.368149,29.955364 
	C188.854965,25.853296 196.265747,29.031418 197.947678,37.677387 
z"/>
<path fill="#4B7181" opacity="1.000000" stroke="none" 
	d="
M126.597054,102.086372 
	C125.943596,108.995033 128.524979,114.446571 134.769531,118.515900 
	C126.592461,116.782097 122.872749,109.646126 126.597054,102.086372 
z"/>
<path fill="#429E6E" opacity="1.000000" stroke="none" 
	d="
M174.124039,92.946899 
	C172.308090,90.988503 170.492126,89.030098 168.371933,86.561920 
	C168.010193,85.632851 167.952698,85.213577 167.968811,84.584656 
	C168.042435,84.375015 168.176727,83.948975 168.552887,83.951904 
	C169.686142,83.909325 170.443237,83.863815 171.172180,83.893234 
	C171.144028,83.968170 170.993973,83.912369 171.161118,84.109192 
	C171.582230,84.536331 171.836197,84.766647 172.028275,84.984756 
	C171.966385,84.972565 171.990540,84.848740 172.205475,85.055771 
	C172.956955,85.504715 173.493484,85.746620 174.013794,85.995682 
	C173.997559,86.002846 174.014755,85.971825 174.030457,86.332016 
	C175.717133,89.485168 177.388107,92.278122 179.059082,95.071075 
	C179.059082,95.071075 178.999100,95.015556 178.734360,94.869225 
	C177.021088,94.130898 175.572571,93.538902 174.124039,92.946899 
z"/>
<path fill="#588870" opacity="1.000000" stroke="none" 
	d="
M145.155243,115.057129 
	C145.573013,114.999420 145.918884,115.017929 146.525909,115.035225 
	C150.490097,118.488991 154.193176,121.943977 158.099121,125.684280 
	C157.476776,125.984169 156.651550,125.998734 155.239410,125.724419 
	C152.100006,122.951729 149.547546,120.467926 146.995071,117.984116 
	C146.995071,117.984116 147.000458,118.000244 146.803650,117.809830 
	C146.089081,117.417885 145.571304,117.216354 145.053528,117.014816 
	C145.053528,117.014816 145.020630,116.976311 144.990768,116.710449 
	C144.949158,116.277702 144.937408,116.110817 144.944427,115.783867 
	C144.963181,115.623802 144.958298,115.301529 144.958298,115.301529 
	C144.958298,115.301529 145.083344,115.133362 145.155243,115.057129 
z"/>
<path fill="#4B7181" opacity="1.000000" stroke="none" 
	d="
M167.895203,84.794296 
	C167.952698,85.213577 168.010193,85.632851 168.092102,86.370178 
	C163.373993,86.835464 158.631454,86.982697 153.516586,87.196297 
	C153.139099,87.024887 153.133972,86.787117 153.584625,86.208015 
	C158.658676,85.509216 163.276947,85.151756 167.895203,84.794296 
z"/>
<path fill="#4A9E71" opacity="1.000000" stroke="none" 
	d="
M126.665421,50.993088 
	C127.642731,51.670204 128.319534,52.494862 128.767365,53.778481 
	C126.809761,55.892944 125.081131,57.548447 123.352509,59.203949 
	C122.980209,58.313538 122.607910,57.423130 122.081505,56.205238 
	C123.406570,54.298717 124.885742,52.719673 126.665421,50.993088 
z"/>
<path fill="#555856" opacity="1.000000" stroke="none" 
	d="
M182.587128,118.267426 
	C182.276810,117.983246 181.966492,117.699074 181.385132,117.253113 
	C181.083420,116.348572 181.052765,115.605820 181.005066,114.493065 
	C184.100922,114.498405 187.213837,114.873756 190.697220,115.116379 
	C191.176727,115.357063 191.285751,115.730499 191.394562,116.396828 
	C191.394333,116.689728 191.205566,116.829308 190.802002,117.075226 
	C187.794678,117.636574 185.190903,117.951996 182.587128,118.267426 
z"/>
<path fill="#5A9076" opacity="1.000000" stroke="none" 
	d="
M154.964325,60.629642 
	C152.443741,58.522240 149.793289,56.104065 147.053650,53.356186 
	C149.587799,55.457275 152.211121,57.888073 154.964325,60.629642 
z"/>
<path fill="#5A9076" opacity="1.000000" stroke="none" 
	d="
M239.171112,199.543457 
	C236.861496,197.789047 234.519394,195.683487 232.103119,193.248627 
	C234.398834,195.010315 236.768723,197.101303 239.171112,199.543457 
z"/>
<path fill="#5A9076" opacity="1.000000" stroke="none" 
	d="
M174.148941,93.276154 
	C175.572571,93.538902 177.021088,94.130898 178.762726,94.901352 
	C178.582626,95.700722 178.109390,96.321640 177.347214,97.055649 
	C176.096802,95.980949 175.135315,94.793182 174.148941,93.276154 
z"/>
<path fill="#808480" opacity="1.000000" stroke="none" 
	d="
M191.033859,165.030975 
	C191.245255,165.155685 191.471985,165.238251 191.894882,165.261734 
	C192.232315,165.586380 192.388947,165.927963 192.342224,166.524170 
	C192.138870,166.778793 191.690033,166.868637 191.690033,166.868637 
	C189.715515,166.408951 187.740982,165.949280 185.866302,165.335571 
	C187.655365,165.131348 189.344620,165.081161 191.033859,165.030975 
z"/>
<path fill="#4B7181" opacity="1.000000" stroke="none" 
	d="
M128.900970,97.327553 
	C129.167053,96.978783 129.336349,96.956551 129.979645,96.943542 
	C130.453659,96.952766 130.893478,97.038162 130.893478,97.038162 
	C129.761017,98.610207 128.628555,100.182243 127.173447,101.847092 
	C127.501938,100.511299 128.153076,99.082703 128.900970,97.327553 
z"/>
<path fill="#4A9E71" opacity="1.000000" stroke="none" 
	d="
M119.989418,57.328621 
	C119.325844,58.305313 118.493988,59.582027 117.361221,60.951305 
	C117.980598,59.905457 118.900864,58.767052 119.989418,57.328621 
z"/>
<path fill="#4A9E71" opacity="1.000000" stroke="none" 
	d="
M196.217270,100.025909 
	C195.838394,99.515686 195.609756,98.982178 195.272110,98.316650 
	C195.564590,98.790634 195.966049,99.396637 196.217270,100.025909 
z"/>
<path fill="#5A9076" opacity="1.000000" stroke="none" 
	d="
M256.074219,58.813889 
	C255.531616,58.692234 254.927231,58.368942 254.193054,57.810295 
	C254.712997,57.920715 255.362701,58.266483 256.074219,58.813889 
z"/>
<path fill="#5A9076" opacity="1.000000" stroke="none" 
	d="
M157.015259,62.703850 
	C156.445419,62.473259 155.783096,61.948120 155.098297,61.157341 
	C155.691452,61.397568 156.307129,61.903439 157.015259,62.703850 
z"/>
<path fill="#527D64" opacity="1.000000" stroke="none" 
	d="
M254.299072,87.003052 
	C254.488235,86.466866 254.966415,85.810524 255.737030,85.026306 
	C255.549011,85.559921 255.068558,86.221420 254.299072,87.003052 
z"/>
<path fill="#8EBAA1" opacity="1.000000" stroke="none" 
	d="
M168.772751,185.020142 
	C168.516037,185.268097 167.970474,185.587830 167.235718,185.903946 
	C167.525650,185.630844 168.004776,185.361359 168.772751,185.020142 
z"/>
<path fill="#5A9076" opacity="1.000000" stroke="none" 
	d="
M215.337280,86.946213 
	C215.828278,86.619118 216.667130,86.298340 217.852936,85.939392 
	C217.361633,86.251663 216.523392,86.602097 215.337280,86.946213 
z"/>
<path fill="#5A9076" opacity="1.000000" stroke="none" 
	d="
M159.909592,64.161728 
	C159.909592,64.161728 159.906311,63.696690 159.904190,63.464645 
	C160.389999,62.842598 160.877945,62.452599 161.645294,61.923080 
	C161.934494,62.298008 161.944290,62.812447 161.615204,63.746803 
	C160.820740,64.165054 160.365158,64.163391 159.909592,64.161728 
z"/>
<path fill="#4B7181" opacity="1.000000" stroke="none" 
	d="
M180.720444,30.000164 
	C180.721558,30.267689 180.487213,30.617964 180.086746,30.925102 
	C179.998535,30.537769 180.186661,30.271420 180.720444,30.000164 
z"/>
<path fill="#4B7181" opacity="1.000000" stroke="none" 
	d="
M152.269257,88.325684 
	C152.340591,88.238846 152.420151,88.143082 152.449493,88.134354 
	C152.478836,88.125633 152.458954,88.491753 152.458954,88.491753 
	C152.458954,88.491753 152.197906,88.412521 152.269257,88.325684 
z"/>
<path fill="#4B7181" opacity="1.000000" stroke="none" 
	d="
M198.006607,42.601643 
	C197.954498,42.572433 197.968964,42.513294 197.980804,42.487160 
	C197.992645,42.461021 198.058716,42.630852 198.006607,42.601643 
z"/>
<path fill="#555856" opacity="1.000000" stroke="none" 
	d="
M191.802277,167.169434 
	C191.690033,166.868637 192.138870,166.778793 192.366150,166.805756 
	C192.772888,167.168259 192.740646,167.482040 192.301315,167.928619 
	C192.042130,167.878876 191.978333,167.674561 191.802277,167.169434 
z"/>
<path fill="#527D64" opacity="1.000000" stroke="none" 
	d="
M241.870026,204.682465 
	C241.691132,204.664459 241.488739,204.365677 241.215317,203.800964 
	C241.378387,203.823929 241.612457,204.112808 241.870026,204.682465 
z"/>
<path fill="#4B7181" opacity="1.000000" stroke="none" 
	d="
M198.348846,48.662315 
	C198.350754,48.764538 198.105545,48.511429 198.063141,48.432945 
	C198.020752,48.354462 198.346954,48.560093 198.348846,48.662315 
z"/>
<path fill="#3B393A" opacity="1.000000" stroke="none" 
	d="
M191.315308,114.985748 
	C191.263290,114.800148 191.424911,114.518761 191.834991,114.188354 
	C191.936981,114.417870 191.752151,114.668083 191.315308,114.985748 
z"/>
<path fill="#3B393A" opacity="1.000000" stroke="none" 
	d="
M191.013702,164.559845 
	C189.344620,165.081161 187.655365,165.131348 185.551636,165.215744 
	C184.684753,165.234406 184.232376,165.218872 183.446991,165.255096 
	C182.886520,157.046249 182.576630,148.786819 182.456635,140.524658 
	C182.353210,133.403351 182.466064,126.278908 182.535217,118.711639 
	C185.190903,117.951996 187.794678,117.636574 190.708282,117.145920 
	C191.009933,132.676697 191.001740,148.382706 191.013702,164.559845 
z"/>
<path fill="#020202" opacity="1.000000" stroke="none" 
	d="
M123.304100,59.193459 
	C125.081131,57.548447 126.809761,55.892944 128.848541,54.097599 
	C129.525711,54.008118 129.892715,54.058483 130.540222,54.100067 
	C133.715622,54.727715 136.594452,55.461914 139.514999,55.942482 
	C140.420410,56.091465 141.461884,55.294640 142.401566,55.377708 
	C144.748566,55.585201 152.061615,64.526985 151.935974,67.846893 
	C147.215393,73.534340 150.537323,78.766220 151.153473,83.900688 
	C148.088852,87.388947 145.024231,90.877205 141.856384,94.720566 
	C139.440750,95.313889 137.128326,95.552101 134.294800,95.546371 
	C130.580566,92.139420 127.387444,88.976395 124.165535,85.842957 
	C124.136742,85.872551 124.186676,85.938324 124.238464,85.618805 
	C123.869179,84.847000 123.448105,84.394714 123.037857,83.972214 
	C123.048691,84.001991 123.102020,83.967644 122.977859,83.657501 
	C121.595734,82.468254 120.337753,81.589165 119.079781,80.710068 
	C120.700836,75.458534 120.914513,70.210724 119.364082,64.441544 
	C120.877853,62.304413 122.065773,60.694172 123.253693,59.083927 
	C123.253693,59.083923 123.255692,59.182968 123.304100,59.193459 
z"/>
<path fill="#96D2B0" opacity="1.000000" stroke="none" 
	d="
M107.435898,75.750259 
	C106.548119,73.727852 106.022552,71.871857 105.496986,70.015854 
	C107.198112,69.744186 109.021004,68.986320 110.557693,69.371193 
	C111.587967,69.629227 112.212334,71.507973 113.018318,72.661537 
	C111.278252,73.746582 109.538185,74.831627 107.435898,75.750259 
z"/>
<path fill="#588870" opacity="1.000000" stroke="none" 
	d="
M119.073364,81.122879 
	C120.337753,81.589165 121.595734,82.468254 122.565674,83.679489 
	C121.177704,84.001579 120.077759,83.991531 118.977814,83.981476 
	C118.977814,83.981476 118.994911,83.997360 119.005539,84.003593 
	C119.033089,83.185112 119.050018,82.360397 119.073364,81.122879 
z"/>
<path fill="#4A9E71" opacity="1.000000" stroke="none" 
	d="
M122.935104,59.225800 
	C122.065773,60.694172 120.877853,62.304413 119.378273,64.051628 
	C120.249916,62.581619 121.433212,60.974640 122.935104,59.225800 
z"/>
<path fill="#020202" opacity="1.000000" stroke="none" 
	d="
M178.270996,51.153709 
	C183.533340,50.790932 188.776169,50.438908 194.547882,50.446812 
	C196.697906,52.571411 198.319000,54.336086 199.940094,56.100761 
	C199.940094,56.100765 199.980988,56.044346 200.005920,56.307560 
	C200.348160,56.739437 200.665451,56.908096 200.982742,57.076759 
	C200.982742,57.076756 200.894943,57.010719 200.947083,57.355133 
	C201.634613,58.191193 202.270020,58.682838 202.905411,59.174492 
	C202.905411,59.174492 202.992996,59.102432 202.999756,59.342148 
	C203.334259,59.746269 203.662018,59.910671 203.989761,60.075073 
	C203.989761,60.075073 203.996063,60.008255 204.026764,60.283630 
	C204.367722,60.730576 204.678009,60.902142 204.988281,61.073708 
	C204.988281,61.073708 204.996674,61.008411 205.025879,61.277763 
	C205.370178,61.720798 205.685257,61.894489 206.000351,62.068180 
	C206.000351,62.068180 206.000259,61.998505 206.040070,62.265240 
	C206.386765,62.712139 206.693665,62.892300 207.000549,63.072464 
	C207.000549,63.072464 206.974808,63.007378 206.981720,63.363258 
	C207.030716,64.176254 207.072830,64.633369 207.114929,65.090485 
	C202.277130,68.562172 198.414062,72.467430 200.925446,79.554909 
	C201.947662,83.923500 199.470367,86.261902 196.892563,88.597046 
	C195.567215,89.797615 194.368683,91.138184 192.929230,92.717514 
	C189.466858,93.025360 186.188095,93.031189 182.134033,93.083412 
	C178.910736,90.743805 176.462738,88.357819 174.014755,85.971825 
	C174.014755,85.971825 173.997559,86.002846 173.856232,85.728195 
	C173.140121,85.251945 172.565323,85.050346 171.990540,84.848740 
	C171.990540,84.848740 171.966385,84.972565 171.961975,84.704468 
	C171.636353,84.261703 171.315170,84.087036 170.993973,83.912369 
	C170.993973,83.912369 171.144028,83.968170 171.079285,83.491631 
	C172.369125,76.049644 173.806641,69.059616 165.647186,64.915520 
	C167.707977,62.567612 169.768768,60.219704 172.298096,57.529797 
	C173.135361,56.797913 173.504074,56.408028 173.872803,56.018139 
	C173.872803,56.018139 174.006699,55.996037 174.249573,55.800064 
	C174.750916,55.130459 175.009384,54.656830 175.267838,54.183197 
	C175.267838,54.183193 175.184097,54.188320 175.458038,54.161438 
	C176.104782,53.759041 176.477600,53.383522 176.850403,53.008003 
	C176.850403,53.008003 176.989243,52.972977 177.235321,52.772850 
	C177.728210,52.092514 177.975006,51.612305 178.221817,51.132099 
	C178.221817,51.132099 178.251450,51.164463 178.270996,51.153709 
z"/>
<path fill="#48BFE7" opacity="1.000000" stroke="none" 
	d="
M213.533020,72.061600 
	C214.506180,73.923416 215.369217,75.611526 215.505920,77.356537 
	C215.546158,77.870377 213.253098,79.278717 212.513123,78.998703 
	C210.798462,78.349861 208.291550,77.115967 208.049362,75.769661 
	C207.389862,72.103500 210.104980,71.477364 213.533020,72.061600 
z"/>
<path fill="#4B7181" opacity="1.000000" stroke="none" 
	d="
M221.789795,83.061348 
	C221.789795,83.061348 221.408447,83.074272 221.218445,83.059219 
	C221.012772,78.676758 220.997116,74.309349 221.085083,69.377510 
	C221.188721,68.813080 221.530655,68.490524 221.765839,68.772491 
	C224.472717,73.761757 224.443939,78.431351 221.789795,83.061348 
z"/>
<path fill="#588870" opacity="1.000000" stroke="none" 
	d="
M218.899170,66.350647 
	C219.739136,65.480118 220.614761,64.834976 221.684601,64.417618 
	C221.263870,65.412651 220.648941,66.179886 219.784637,66.960861 
	C219.535263,66.974594 219.037888,67.020615 219.037888,67.020615 
	C219.037888,67.020615 218.934814,66.576027 218.899170,66.350647 
z"/>
<path fill="#5A9076" opacity="1.000000" stroke="none" 
	d="
M207.436050,65.054787 
	C207.072830,64.633369 207.030716,64.176254 206.949600,63.377163 
	C207.534012,63.446182 208.157440,63.857174 208.904144,64.527588 
	C208.604004,64.864365 208.180573,64.941727 207.436050,65.054787 
z"/>
<path fill="#4B7181" opacity="1.000000" stroke="none" 
	d="
M219.160751,67.274002 
	C219.037888,67.020615 219.535263,66.974594 220.012802,67.111328 
	C220.837112,67.662216 221.183884,68.076370 221.530655,68.490524 
	C221.530655,68.490524 221.188721,68.813080 221.016266,68.974899 
	C220.323761,68.600273 219.803696,68.063835 219.160751,67.274002 
z"/>
<path fill="#020202" opacity="1.000000" stroke="none" 
	d="
M221.765839,68.772491 
	C221.183884,68.076370 220.837112,67.662216 220.262177,67.097595 
	C220.648941,66.179886 221.263870,65.412651 222.013611,64.375107 
	C222.148407,64.104797 222.090332,64.033691 222.322144,63.996246 
	C222.729874,63.642033 222.905792,63.325272 223.081711,63.008511 
	C223.081711,63.008511 223.007797,63.006996 223.270294,62.955788 
	C223.725067,62.610153 223.917328,62.315731 224.109589,62.021309 
	C224.109589,62.021305 224.036636,62.070881 224.339279,61.989704 
	C225.110153,61.277836 225.578384,60.647144 226.046616,60.016449 
	C226.046616,60.016449 225.994598,59.997101 226.240814,59.923981 
	C226.672531,59.567978 226.858017,59.285091 227.043488,59.002213 
	C227.043503,59.002216 226.992722,58.996490 227.265167,58.872757 
	C227.838120,58.245174 228.138611,57.741333 228.439102,57.237488 
	C228.439102,57.237484 228.276871,57.187748 228.542023,57.172737 
	C228.966888,56.802574 229.126602,56.447422 229.286316,56.092270 
	C229.286316,56.092270 229.101593,56.087975 229.397888,56.103783 
	C229.894379,55.782188 230.094559,55.444786 230.294724,55.107384 
	C230.294724,55.107380 230.175293,55.232853 230.587341,55.264153 
	C231.462357,55.205929 231.925339,55.116402 232.388306,55.026875 
	C236.282700,54.733955 240.177109,54.441040 244.406097,54.013771 
	C247.855103,56.893711 250.969513,59.907997 254.466003,63.434319 
	C254.281174,66.974907 253.714279,70.003456 253.147369,73.032005 
	C253.232361,75.481361 253.317352,77.930710 252.893158,80.699036 
	C251.887100,81.655670 251.390244,82.293343 250.893372,82.931015 
	C250.893372,82.931007 250.962051,82.955093 250.598541,82.950195 
	C249.785309,83.606102 249.335602,84.266899 248.885895,84.927689 
	C248.885910,84.927696 248.948959,84.958977 248.674652,84.984337 
	C248.229721,85.318993 248.059082,85.628288 247.888428,85.937584 
	C247.888428,85.937584 247.954254,85.954819 247.682434,85.989914 
	C247.236862,86.331833 247.063126,86.638664 246.889389,86.945496 
	C246.889389,86.945496 246.955963,86.956100 246.682999,86.988556 
	C246.236252,87.328262 246.062454,87.635513 245.888657,87.942764 
	C245.888657,87.942764 245.955109,87.955238 245.681290,87.988815 
	C245.236740,88.331429 245.065994,88.640465 244.895264,88.949493 
	C244.895264,88.949501 244.961761,88.961533 244.697937,89.006058 
	C244.256638,89.356239 244.079193,89.661911 243.901733,89.967575 
	C243.901733,89.967567 243.967850,89.968025 243.655304,90.011261 
	C242.862244,90.678192 242.381714,91.301880 241.901184,91.925568 
	C241.901184,91.925568 241.998993,91.973244 241.606171,91.998238 
	C240.778259,93.007240 240.343185,93.991249 239.908112,94.975250 
	C237.640610,94.970093 235.373093,94.964935 232.692520,95.001282 
	C228.898422,91.249214 225.517395,87.455620 221.963089,83.361687 
	C224.443939,78.431351 224.472717,73.761757 221.765839,68.772491 
z"/>
<path fill="#48BFE7" opacity="1.000000" stroke="none" 
	d="
M240.054688,41.880417 
	C239.760147,43.877941 239.656860,46.007149 238.540787,47.127254 
	C237.854614,47.815899 235.272156,47.438457 234.191071,46.649326 
	C233.328568,46.019756 232.827133,43.807137 233.245834,42.709263 
	C234.655930,39.011929 237.182724,39.425671 240.054688,41.880417 
z"/>
<path fill="#588870" opacity="1.000000" stroke="none" 
	d="
M232.125427,54.836964 
	C231.925339,55.116402 231.462357,55.205929 230.651123,55.322746 
	C230.263489,55.114033 230.224091,54.878033 230.149658,54.284607 
	C230.697266,54.167141 231.279922,54.407093 232.125427,54.836964 
z"/>
<path fill="#48BFE7" opacity="1.000000" stroke="none" 
	d="
M139.587677,41.734016 
	C139.099716,43.914963 138.583252,45.926582 137.460068,47.507030 
	C137.225784,47.836681 134.128723,46.964397 133.478485,45.934280 
	C132.813751,44.881161 133.130157,41.837532 133.727417,41.620544 
	C135.403564,41.011589 137.445786,41.410275 139.587677,41.734016 
z"/>
<path fill="#48BFE7" opacity="1.000000" stroke="none" 
	d="
M186.869553,107.784622 
	C185.104141,106.321144 183.709778,104.851738 182.315414,103.382339 
	C183.589005,102.288826 185.004745,100.180267 186.103622,100.334167 
	C187.853363,100.579224 189.391998,102.331619 191.019913,103.446533 
	C189.760147,104.890587 188.500381,106.334641 186.869553,107.784622 
z"/>
<path fill="#5A9076" opacity="1.000000" stroke="none" 
	d="
M174.030457,86.332016 
	C176.462738,88.357819 178.910736,90.743805 181.715088,93.178986 
	C181.278931,93.834618 180.486420,94.441071 179.376495,95.059303 
	C177.388107,92.278122 175.717133,89.485168 174.030457,86.332016 
z"/>
<path fill="#96D2B0" opacity="1.000000" stroke="none" 
	d="
M164.298981,133.588730 
	C166.441910,136.503036 166.990219,139.198242 163.297409,140.541275 
	C162.078537,140.984543 159.787430,140.329605 158.916840,139.350052 
	C158.078873,138.407196 157.793106,135.469193 158.408264,135.037537 
	C159.908295,133.985001 162.070480,133.876144 164.298981,133.588730 
z"/>
<path fill="#38A165" opacity="1.000000" stroke="none" 
	d="
M147.011963,118.343826 
	C149.547546,120.467926 152.100006,122.951729 154.827881,125.718994 
	C154.816360,126.249779 154.609100,126.478668 154.204666,126.838364 
	C151.694855,124.226250 149.361862,121.464890 147.011963,118.343826 
z"/>
<path fill="#96D2B0" opacity="1.000000" stroke="none" 
	d="
M207.887527,133.592972 
	C210.278931,133.929108 212.470596,134.228607 214.315140,135.192444 
	C214.778748,135.434692 214.628632,138.288727 213.865860,139.079285 
	C212.897964,140.082504 210.830612,140.911469 209.565491,140.576431 
	C205.645309,139.538284 205.346558,136.923492 207.887527,133.592972 
z"/>
<path fill="#48BFE7" opacity="1.000000" stroke="none" 
	d="
M188.500824,42.867863 
	C186.316208,42.256054 184.288239,41.760860 182.797791,40.584599 
	C182.323563,40.210350 182.844574,37.497196 183.689789,36.801613 
	C184.747223,35.931370 186.748108,35.490505 188.094910,35.833485 
	C191.198776,36.623913 191.412903,39.449577 188.500824,42.867863 
z"/>
<path fill="#48BFE7" opacity="1.000000" stroke="none" 
	d="
M133.776154,109.437836 
	C133.838272,107.338593 133.541626,104.783615 134.626373,103.871475 
	C135.618515,103.037209 138.543564,103.401718 139.778854,104.340530 
	C140.611923,104.973671 140.561279,108.661224 139.906143,108.989967 
	C138.244003,109.824036 136.019043,109.536530 133.776154,109.437836 
z"/>
<path fill="#588870" opacity="1.000000" stroke="none" 
	d="
M124.194328,85.813370 
	C127.387444,88.976395 130.580566,92.139420 133.908051,95.603271 
	C133.212296,96.229988 132.382156,96.555870 131.222748,96.959961 
	C130.893478,97.038162 130.453659,96.952766 130.233597,96.910370 
	C130.012634,96.498825 130.011734,96.129684 130.087067,95.220947 
	C129.103531,93.358673 128.043747,92.035988 126.983971,90.713303 
	C126.841652,90.541672 126.688011,90.380852 126.195572,89.844437 
	C125.310165,88.243126 124.752251,87.028252 124.194328,85.813370 
z"/>
<path fill="#38A165" opacity="1.000000" stroke="none" 
	d="
M144.925674,115.943932 
	C144.937408,116.110817 144.949158,116.277702 144.970703,116.695007 
	C144.980499,116.945419 144.503632,116.875328 144.267807,116.829308 
	C144.031982,116.783287 144.121094,116.373207 144.350708,116.171516 
	C144.580322,115.969826 144.925674,115.943932 144.925674,115.943932 
z"/>
<path fill="#4B7181" opacity="1.000000" stroke="none" 
	d="
M144.944427,115.783867 
	C144.925674,115.943932 144.580322,115.969826 144.409790,115.970184 
	C144.318604,115.748123 144.454834,115.569016 144.803116,115.367371 
	C144.958298,115.301529 144.963181,115.623802 144.944427,115.783867 
z"/>
<path fill="#38A165" opacity="1.000000" stroke="none" 
	d="
M253.446793,73.189987 
	C253.714279,70.003456 254.281174,66.974907 254.770950,63.562466 
	C255.535141,63.115223 256.376465,63.051876 257.641357,62.962738 
	C264.545563,60.815437 269.981659,62.170456 274.427063,67.896416 
	C274.256378,71.198074 274.446930,74.656952 273.196838,77.477272 
	C271.296783,81.763977 267.601349,83.656975 262.610687,82.546555 
	C260.786316,82.140633 258.765778,82.616203 256.496460,82.856232 
	C255.354202,79.797867 254.550217,76.572914 253.446793,73.189987 
M260.264648,73.285652 
	C261.318817,76.374649 263.811340,76.900658 266.208405,75.701248 
	C267.437988,75.086021 268.780212,72.590782 268.432037,71.442146 
	C267.960693,69.887161 265.914490,68.809547 264.543945,67.527130 
	C263.091492,69.190987 261.639038,70.854851 260.264648,73.285652 
z"/>
<path fill="#126B9B" opacity="1.000000" stroke="none" 
	d="
M229.051010,115.166107 
	C228.974670,113.589745 229.078278,112.244164 228.836136,110.963982 
	C226.938965,100.934105 230.069321,97.016434 240.488892,97.020012 
	C241.106720,97.046944 241.301025,97.068626 241.784912,97.147064 
	C243.203568,99.216377 245.151627,101.179649 245.276382,103.252655 
	C245.481186,106.655304 245.404114,110.641113 243.808228,113.450859 
	C241.516098,117.486458 237.117447,117.942970 232.265656,116.000252 
	C231.531708,115.700684 231.291107,115.721291 231.058853,115.875092 
	C230.632202,115.892380 230.205551,115.909668 229.460754,115.936401 
	C229.118668,115.772964 229.094711,115.600067 229.051010,115.166107 
M232.575958,108.053261 
	C234.294357,108.946190 235.946930,110.248093 237.762024,110.540184 
	C238.539032,110.665207 240.239090,108.795097 240.452240,107.635338 
	C240.667297,106.465218 239.912918,104.638504 238.962280,103.825935 
	C236.512375,101.731865 233.638229,103.371872 232.575958,108.053261 
z"/>
<path fill="#8EBAA1" opacity="1.000000" stroke="none" 
	d="
M240.157318,95.022949 
	C240.343185,93.991249 240.778259,93.007240 241.563141,91.964462 
	C241.742416,92.821274 241.571915,93.736855 241.149200,94.926605 
	C240.733505,95.157387 240.570007,95.114006 240.157318,95.022949 
z"/>
<path fill="#8EBAA1" opacity="1.000000" stroke="none" 
	d="
M251.223557,82.978394 
	C251.390244,82.293343 251.887100,81.655670 252.712234,81.023407 
	C252.544907,81.694466 252.049316,82.360115 251.223557,82.978394 
z"/>
<path fill="#8EBAA1" opacity="1.000000" stroke="none" 
	d="
M249.236374,84.972992 
	C249.335602,84.266899 249.785309,83.606102 250.584991,82.916428 
	C250.485596,83.597786 250.036224,84.308037 249.236374,84.972992 
z"/>
<path fill="#8EBAA1" opacity="1.000000" stroke="none" 
	d="
M242.252869,92.001831 
	C242.381714,91.301880 242.862244,90.678192 243.643692,89.980316 
	C243.497925,90.630112 243.051239,91.354095 242.252869,92.001831 
z"/>
<path fill="#8EBAA1" opacity="1.000000" stroke="none" 
	d="
M247.191727,86.933670 
	C247.063126,86.638664 247.236862,86.331833 247.676331,85.956436 
	C247.792725,86.232536 247.643387,86.577187 247.191727,86.933670 
z"/>
<path fill="#8EBAA1" opacity="1.000000" stroke="none" 
	d="
M248.198669,85.942856 
	C248.059082,85.628288 248.229721,85.318993 248.669693,84.949493 
	C248.795654,85.242241 248.652283,85.595184 248.198669,85.942856 
z"/>
<path fill="#8EBAA1" opacity="1.000000" stroke="none" 
	d="
M246.193542,87.936440 
	C246.062454,87.635513 246.236252,87.328262 246.677032,86.955368 
	C246.795517,87.236526 246.646988,87.583321 246.193542,87.936440 
z"/>
<path fill="#8EBAA1" opacity="1.000000" stroke="none" 
	d="
M245.201202,88.944107 
	C245.065994,88.640465 245.236740,88.331429 245.674713,87.955658 
	C245.797028,88.238846 245.652100,88.588783 245.201202,88.944107 
z"/>
<path fill="#8EBAA1" opacity="1.000000" stroke="none" 
	d="
M244.188599,89.925201 
	C244.079193,89.661911 244.256638,89.356239 244.696777,88.972290 
	C244.798126,89.223610 244.636780,89.553223 244.188599,89.925201 
z"/>
<path fill="#156D9D" opacity="1.000000" stroke="none" 
	d="
M151.386902,84.057236 
	C150.537323,78.766220 147.215393,73.534340 151.866272,68.252823 
	C154.465424,66.779045 156.903214,65.636101 159.625305,64.327446 
	C160.365158,64.163391 160.820740,64.165054 161.614197,64.132607 
	C162.458481,64.363876 162.964890,64.629257 163.928925,65.250244 
	C170.691513,70.678513 171.838257,76.816994 168.176727,83.948975 
	C168.176727,83.948975 168.042435,84.375015 167.968811,84.584656 
	C163.276947,85.151756 158.658676,85.509216 153.595154,85.851433 
	C152.640030,85.295387 152.130188,84.754585 151.386902,84.057236 
M162.116547,78.846626 
	C162.612076,77.011055 163.474091,75.156776 163.381943,73.351204 
	C163.353943,72.802895 160.469070,71.720016 159.299576,72.108093 
	C158.202606,72.472092 156.687210,75.092537 157.029678,75.607948 
	C158.000183,77.068596 159.827545,77.959908 162.116547,78.846626 
z"/>
<path fill="#4B7181" opacity="1.000000" stroke="none" 
	d="
M168.552887,83.951904 
	C171.838257,76.816994 170.691513,70.678513 164.205292,65.330856 
	C164.384430,65.014915 164.744873,64.973961 165.376251,64.924263 
	C173.806641,69.059616 172.369125,76.049644 171.107452,83.416702 
	C170.443237,83.863815 169.686142,83.909325 168.552887,83.951904 
z"/>
<path fill="#4B7181" opacity="1.000000" stroke="none" 
	d="
M175.047058,54.340645 
	C175.009384,54.656830 174.750916,55.130459 174.252548,55.732269 
	C174.283859,55.406326 174.555084,54.952209 175.047058,54.340645 
z"/>
<path fill="#4B7181" opacity="1.000000" stroke="none" 
	d="
M176.594727,53.088600 
	C176.477600,53.383522 176.104782,53.759041 175.462982,54.203091 
	C175.575668,53.904144 175.957352,53.536671 176.594727,53.088600 
z"/>
<path fill="#4B7181" opacity="1.000000" stroke="none" 
	d="
M173.614410,56.111572 
	C173.504074,56.408028 173.135361,56.797913 172.507492,57.279312 
	C172.617569,56.982220 172.986786,56.593616 173.614410,56.111572 
z"/>
<path fill="#4B7181" opacity="1.000000" stroke="none" 
	d="
M178.005493,51.294613 
	C177.975006,51.612305 177.728210,52.092514 177.241928,52.701561 
	C177.264694,52.372639 177.526917,51.914883 178.005493,51.294613 
z"/>
<path fill="#176C9B" opacity="1.000000" stroke="none" 
	d="
M231.290009,115.908936 
	C231.291107,115.721291 231.531708,115.700684 231.884186,115.890625 
	C231.987717,115.967972 231.521164,115.942780 231.290009,115.908936 
z"/>
<path fill="#5A9076" opacity="1.000000" stroke="none" 
	d="
M199.897842,55.750748 
	C198.319000,54.336086 196.697906,52.571411 194.927490,50.505081 
	C195.011261,49.921535 195.244324,49.639637 195.668793,49.163521 
	C197.192017,51.113110 198.523804,53.256920 199.897842,55.750748 
z"/>
<path fill="#5A9076" opacity="1.000000" stroke="none" 
	d="
M202.826233,58.865326 
	C202.270020,58.682838 201.634613,58.191193 200.914032,57.399010 
	C201.468246,57.584370 202.107635,58.070267 202.826233,58.865326 
z"/>
<path fill="#5A9076" opacity="1.000000" stroke="none" 
	d="
M200.834015,56.872040 
	C200.665451,56.908096 200.348160,56.739437 199.976730,56.288551 
	C200.176834,56.226658 200.431061,56.446987 200.834015,56.872040 
z"/>
<path fill="#5A9076" opacity="1.000000" stroke="none" 
	d="
M203.839752,59.871483 
	C203.662018,59.910671 203.334259,59.746269 202.963760,59.298328 
	C203.177246,59.232491 203.433502,59.450191 203.839752,59.871483 
z"/>
<path fill="#5A9076" opacity="1.000000" stroke="none" 
	d="
M204.839661,60.870018 
	C204.678009,60.902142 204.367722,60.730576 203.993210,60.284634 
	C204.182999,60.228951 204.437027,60.447639 204.839661,60.870018 
z"/>
<path fill="#5A9076" opacity="1.000000" stroke="none" 
	d="
M205.847931,61.867020 
	C205.685257,61.894489 205.370178,61.720798 204.992996,61.279251 
	C205.185776,61.229553 205.440643,61.447708 205.847931,61.867020 
z"/>
<path fill="#5A9076" opacity="1.000000" stroke="none" 
	d="
M206.848328,62.868931 
	C206.693665,62.892300 206.386765,62.712139 206.005249,62.266235 
	C206.185776,62.222134 206.440933,62.443768 206.848328,62.868931 
z"/>
<path fill="#588870" opacity="1.000000" stroke="none" 
	d="
M225.755386,60.119492 
	C225.578384,60.647144 225.110153,61.277836 224.364441,62.025925 
	C224.546021,61.503052 225.005096,60.862789 225.755386,60.119492 
z"/>
<path fill="#588870" opacity="1.000000" stroke="none" 
	d="
M228.179688,57.389904 
	C228.138611,57.741333 227.838120,58.245174 227.276947,58.895439 
	C227.317581,58.542011 227.618912,58.042164 228.179688,57.389904 
z"/>
<path fill="#588870" opacity="1.000000" stroke="none" 
	d="
M222.877106,63.160385 
	C222.905792,63.325272 222.729874,63.642033 222.285004,64.023201 
	C222.234863,63.829159 222.453674,63.570709 222.877106,63.160385 
z"/>
<path fill="#588870" opacity="1.000000" stroke="none" 
	d="
M229.072235,56.267609 
	C229.126602,56.447422 228.966888,56.802574 228.519775,57.254601 
	C228.440964,57.048637 228.649551,56.745792 229.072235,56.267609 
z"/>
<path fill="#588870" opacity="1.000000" stroke="none" 
	d="
M226.841614,59.147240 
	C226.858017,59.285091 226.672531,59.567978 226.245148,59.951401 
	C226.172791,59.763020 226.384949,59.509796 226.841614,59.147240 
z"/>
<path fill="#588870" opacity="1.000000" stroke="none" 
	d="
M223.901031,62.170784 
	C223.917328,62.315731 223.725067,62.610153 223.269623,62.992760 
	C223.235153,62.827377 223.463821,62.573818 223.901031,62.170784 
z"/>
<path fill="#588870" opacity="1.000000" stroke="none" 
	d="
M230.062653,55.265884 
	C230.094559,55.444786 229.894379,55.782188 229.396973,56.196159 
	C229.343353,55.989948 229.586960,55.707165 230.062653,55.265884 
z"/>
<path fill="#38A165" opacity="1.000000" stroke="none" 
	d="
M124.165535,85.842957 
	C124.752251,87.028252 125.310165,88.243126 126.067757,89.737076 
	C123.956985,88.194527 121.646538,86.372910 119.156952,84.266380 
	C120.077759,83.991531 121.177704,84.001579 122.689835,83.989639 
	C123.102020,83.967644 123.048691,84.001991 123.092575,84.265579 
	C123.486534,84.998886 123.836609,85.468605 124.186676,85.938324 
	C124.186676,85.938324 124.136742,85.872551 124.165535,85.842957 
z"/>
<path fill="#38A165" opacity="1.000000" stroke="none" 
	d="
M126.999176,91.083839 
	C128.043747,92.035988 129.103531,93.358673 130.087463,94.942856 
	C129.012527,93.954361 128.013458,92.704369 126.999176,91.083839 
z"/>
<path fill="#38A165" opacity="1.000000" stroke="none" 
	d="
M145.259094,117.206451 
	C145.571304,117.216354 146.089081,117.417885 146.811798,117.812393 
	C146.499390,117.802948 145.982040,117.600517 145.259094,117.206451 
z"/>
<path fill="#5A9076" opacity="1.000000" stroke="none" 
	d="
M172.205475,85.055771 
	C172.565323,85.050346 173.140121,85.251945 173.872467,85.721039 
	C173.493484,85.746620 172.956955,85.504715 172.205475,85.055771 
z"/>
<path fill="#5A9076" opacity="1.000000" stroke="none" 
	d="
M171.161118,84.109192 
	C171.315170,84.087036 171.636353,84.261703 172.023865,84.716660 
	C171.836197,84.766647 171.582230,84.536331 171.161118,84.109192 
z"/>
<path fill="#588870" opacity="1.000000" stroke="none" 
	d="
M124.238464,85.618805 
	C123.836609,85.468605 123.486534,84.998886 123.081741,84.235809 
	C123.448105,84.394714 123.869179,84.847000 124.238464,85.618805 
z"/>
<path fill="#96D2B0" opacity="1.000000" stroke="none" 
	d="
M260.225616,72.902176 
	C261.639038,70.854851 263.091492,69.190987 264.543945,67.527130 
	C265.914490,68.809547 267.960693,69.887161 268.432037,71.442146 
	C268.780212,72.590782 267.437988,75.086021 266.208405,75.701248 
	C263.811340,76.900658 261.318817,76.374649 260.225616,72.902176 
z"/>
<path fill="#48BFE7" opacity="1.000000" stroke="none" 
	d="
M232.478104,107.696945 
	C233.638229,103.371872 236.512375,101.731865 238.962280,103.825935 
	C239.912918,104.638504 240.667297,106.465218 240.452240,107.635338 
	C240.239090,108.795097 238.539032,110.665207 237.762024,110.540184 
	C235.946930,110.248093 234.294357,108.946190 232.478104,107.696945 
z"/>
<path fill="#48BFE7" opacity="1.000000" stroke="none" 
	d="
M161.716995,78.961037 
	C159.827545,77.959908 158.000183,77.068596 157.029678,75.607948 
	C156.687210,75.092537 158.202606,72.472092 159.299576,72.108093 
	C160.469070,71.720016 163.353943,72.802895 163.381943,73.351204 
	C163.474091,75.156776 162.612076,77.011055 161.716995,78.961037 
z"/>
</svg>